<?xml version="1.0" encoding="utf-8"?>
<!-- Generator: Adobe Illustrator 27.0.0, SVG Export Plug-In . SVG Version: 6.00 Build 0)  -->
<svg version="1.1" id="Logo_00000070819593183431618200000012623562722022872969_"
	 xmlns="http://www.w3.org/2000/svg" xmlns:xlink="http://www.w3.org/1999/xlink" x="0px" y="0px" viewBox="0 0 247.56 133.32"
	 style="enable-background:new 0 0 247.56 133.32;" xml:space="preserve">
<style type="text/css">
	.st0{fill:#FFFFFF;}
</style>
<g id="Appalachian">
</g>
<g id="Web_Design">
</g>
<g id="Shape_4">
	<g>
		<path class="st0" d="M66.95,114.94l-5.19-14.46l-6.03,17.46L39.79,73.59l-8.91,25.8l-4.93-11.74L16,112.32l-4.25-11.84
			l-8.69,25.15h90.83L77.96,87.65L66.95,114.94z M235.82,100.48l-4.26,11.84l-9.95-24.67l-4.92,11.74l-8.91-25.8l-15.93,44.35
			l-6.03-17.46l-5.19,14.46l-11.01-27.29l-15.94,37.98h90.83L235.82,100.48z M166.92,68.89l14.36-6.93l17.8,30.17l-14.83-39.58
			l-9.41,8.91l-17.83-26.71l-17.33,3.96L120.86,7.55L87.67,76.81l-8.69-13.35L57.46,83.73l21.53-16.33l3.24,10.88l-3.24-0.49
			l4.23,14.35l4.46-6.93l33.18-69.75l9.91,17.81l-2.49,4.95l5.96,40.07l4.95-32.65l14.48-5.94l-2.1,10.14L166.92,68.89z"/>
	</g>
</g>
<g id="Rectangle_1_xA0_Image_00000133491829466473801520000006459673221939612579_">
</g>
</svg>
