<?xml version="1.0" encoding="utf-8"?>
<!-- Generator: Adobe Illustrator 27.0.0, SVG Export Plug-In . SVG Version: 6.00 Build 0)  -->
<svg version="1.1" id="Logo_00000070819593183431618200000012623562722022872969_"
	 xmlns="http://www.w3.org/2000/svg" xmlns:xlink="http://www.w3.org/1999/xlink" x="0px" y="0px" viewBox="0 0 414.24 221.98"
	 style="enable-background:new 0 0 414.24 221.98;" xml:space="preserve">
<g id="Appalachian">
	<g>
		<path d="M6.38,179.79l16.33-36.64h8.38l16.38,36.64h-8.9l-13.4-32.35h3.35l-13.45,32.35H6.38z M14.55,171.94l2.25-6.44h18.84
			l2.3,6.44H14.55z"/>
		<path d="M51.3,179.79v-36.64h15.86c3.28,0,6.11,0.53,8.48,1.6c2.37,1.07,4.21,2.59,5.5,4.58c1.29,1.99,1.94,4.36,1.94,7.12
			c0,2.72-0.65,5.08-1.94,7.07c-1.29,1.99-3.12,3.52-5.5,4.58c-2.37,1.06-5.2,1.6-8.48,1.6H56.01l3.77-3.82v13.92H51.3z
			 M59.78,166.81l-3.77-4.03h10.68c2.62,0,4.57-0.56,5.86-1.67c1.29-1.12,1.94-2.67,1.94-4.66c0-2.02-0.65-3.59-1.94-4.71
			c-1.29-1.12-3.25-1.67-5.86-1.67H56.01l3.77-4.03V166.81z"/>
		<path d="M89.09,179.79v-36.64h15.86c3.28,0,6.11,0.53,8.48,1.6c2.37,1.07,4.21,2.59,5.5,4.58c1.29,1.99,1.94,4.36,1.94,7.12
			c0,2.72-0.65,5.08-1.94,7.07c-1.29,1.99-3.12,3.52-5.5,4.58c-2.37,1.06-5.2,1.6-8.48,1.6H93.8l3.77-3.82v13.92H89.09z
			 M97.57,166.81l-3.77-4.03h10.68c2.62,0,4.57-0.56,5.86-1.67c1.29-1.12,1.94-2.67,1.94-4.66c0-2.02-0.65-3.59-1.94-4.71
			c-1.29-1.12-3.25-1.67-5.86-1.67H93.8l3.77-4.03V166.81z"/>
		<path d="M120.24,179.79l16.33-36.64h8.38l16.38,36.64h-8.9l-13.4-32.35h3.35l-13.45,32.35H120.24z M128.4,171.94l2.25-6.44h18.84
			l2.3,6.44H128.4z"/>
		<path d="M165.15,179.79v-36.64h8.48v29.73H192v6.91H165.15z"/>
		<path d="M192.16,179.79l16.33-36.64h8.38l16.38,36.64h-8.9l-13.4-32.35h3.35l-13.45,32.35H192.16z M200.33,171.94l2.25-6.44h18.84
			l2.3,6.44H200.33z"/>
		<path d="M254.08,180.42c-2.83,0-5.45-0.46-7.88-1.39c-2.43-0.92-4.53-2.24-6.31-3.95c-1.78-1.71-3.17-3.72-4.16-6.02
			c-0.99-2.3-1.49-4.83-1.49-7.59c0-2.76,0.5-5.29,1.49-7.59c1-2.3,2.39-4.31,4.19-6.02c1.8-1.71,3.9-3.03,6.31-3.95
			c2.41-0.92,5.04-1.39,7.9-1.39c3.18,0,6.05,0.55,8.61,1.65c2.56,1.1,4.72,2.71,6.46,4.84l-5.44,5.03
			c-1.26-1.43-2.65-2.5-4.19-3.22c-1.54-0.71-3.21-1.07-5.03-1.07c-1.71,0-3.28,0.28-4.71,0.84c-1.43,0.56-2.67,1.36-3.72,2.41
			s-1.86,2.29-2.43,3.72c-0.58,1.43-0.86,3.02-0.86,4.76c0,1.75,0.29,3.33,0.86,4.76c0.58,1.43,1.39,2.67,2.43,3.72
			s2.29,1.85,3.72,2.41c1.43,0.56,3,0.84,4.71,0.84c1.81,0,3.49-0.36,5.03-1.07c1.54-0.71,2.93-1.81,4.19-3.27l5.44,5.03
			c-1.75,2.13-3.9,3.75-6.46,4.87C260.18,179.86,257.29,180.42,254.08,180.42z"/>
		<path d="M283.4,179.79h-8.48v-36.64h8.48V179.79z M300.67,164.77h-17.9v-7.17h17.9V164.77z M300.04,143.15h8.48v36.64h-8.48
			V143.15z"/>
		<path d="M317.21,179.79v-36.64h8.48v36.64H317.21z"/>
		<path d="M329.57,179.79l16.33-36.64h8.38l16.38,36.64h-8.9l-13.4-32.35h3.35l-13.45,32.35H329.57z M337.73,171.94l2.25-6.44h18.84
			l2.3,6.44H337.73z"/>
		<path d="M374.48,179.79v-36.64h7.01l21.62,26.38h-3.4v-26.38h8.38v36.64h-6.96l-21.67-26.38h3.4v26.38H374.48z"/>
	</g>
	<path d="M107.66,207.23H7.82c-0.8,0-1.44-0.64-1.44-1.44l0,0c0-0.8,0.64-1.44,1.44-1.44h99.84V207.23z"/>
	<path d="M406.65,207.23h-99.84v-2.88h99.84c0.8,0,1.44,0.64,1.44,1.44l0,0C408.09,206.58,407.44,207.23,406.65,207.23z"/>
</g>
<g id="Web_Design">
	<g>
		<path d="M121.45,214.06l-5.59-16.57h1.8l5.23,15.6H122l5.4-15.6h1.61l5.33,15.6h-0.85l5.28-15.6h1.68l-5.59,16.57h-1.85
			l-5.09-14.8h0.47l-5.11,14.8H121.45z"/>
		<path d="M148.23,212.55h9.97v1.52h-11.72v-16.57h11.37V199h-9.61V212.55z M148.04,204.9h8.76v1.49h-8.76V204.9z"/>
		<path d="M165.16,214.06v-16.57h7.15c1.85,0,3.28,0.37,4.3,1.11c1.02,0.74,1.53,1.79,1.53,3.15c0,0.9-0.21,1.66-0.63,2.27
			c-0.42,0.62-0.99,1.08-1.7,1.4c-0.72,0.32-1.5,0.47-2.36,0.47l0.4-0.57c1.06,0,1.97,0.16,2.73,0.49c0.77,0.32,1.36,0.81,1.79,1.44
			c0.43,0.64,0.64,1.43,0.64,2.38c0,1.41-0.52,2.49-1.55,3.27s-2.59,1.16-4.68,1.16H165.16z M166.91,212.62h5.85
			c1.45,0,2.56-0.25,3.34-0.75s1.16-1.29,1.16-2.38c0-1.07-0.39-1.86-1.16-2.36s-1.89-0.75-3.34-0.75h-6.04v-1.44h5.47
			c1.33,0,2.36-0.25,3.09-0.76c0.73-0.51,1.1-1.26,1.1-2.25c0-1.01-0.37-1.76-1.1-2.26s-1.76-0.75-3.09-0.75h-5.28V212.62z"/>
		<path d="M194.9,214.06v-16.57h6.75c1.77,0,3.32,0.35,4.65,1.05c1.33,0.7,2.37,1.68,3.11,2.92c0.74,1.25,1.11,2.68,1.11,4.31
			s-0.37,3.06-1.11,4.31c-0.74,1.25-1.78,2.22-3.11,2.92c-1.33,0.7-2.89,1.05-4.65,1.05H194.9z M196.65,212.55h4.9
			c1.47,0,2.74-0.29,3.82-0.86c1.08-0.58,1.92-1.37,2.52-2.39c0.6-1.02,0.9-2.19,0.9-3.52c0-1.34-0.3-2.52-0.9-3.53
			c-0.6-1.01-1.44-1.8-2.52-2.38c-1.08-0.58-2.36-0.86-3.82-0.86h-4.9V212.55z"/>
		<path d="M219.05,212.55h9.97v1.52H217.3v-16.57h11.37V199h-9.61V212.55z M218.86,204.9h8.76v1.49h-8.76V204.9z"/>
		<path d="M240.55,214.2c-1.23,0-2.41-0.2-3.54-0.6c-1.13-0.4-2-0.92-2.62-1.55l0.69-1.35c0.58,0.57,1.37,1.05,2.36,1.43
			s2.02,0.58,3.11,0.58c1.04,0,1.89-0.13,2.55-0.39c0.65-0.26,1.14-0.61,1.44-1.05c0.31-0.44,0.46-0.93,0.46-1.47
			c0-0.65-0.19-1.17-0.56-1.56c-0.37-0.39-0.86-0.71-1.46-0.94c-0.6-0.23-1.26-0.43-1.99-0.6c-0.73-0.17-1.45-0.36-2.18-0.56
			c-0.73-0.2-1.39-0.46-2-0.79c-0.61-0.33-1.1-0.77-1.47-1.31c-0.37-0.54-0.56-1.26-0.56-2.14c0-0.82,0.22-1.58,0.65-2.26
			c0.43-0.69,1.1-1.24,2-1.66c0.9-0.42,2.05-0.63,3.46-0.63c0.93,0,1.85,0.13,2.77,0.39c0.92,0.26,1.71,0.62,2.37,1.08l-0.59,1.4
			c-0.71-0.47-1.46-0.82-2.26-1.04c-0.8-0.22-1.57-0.33-2.31-0.33c-0.99,0-1.82,0.13-2.46,0.4s-1.12,0.63-1.43,1.08
			c-0.31,0.45-0.46,0.96-0.46,1.53c0,0.65,0.18,1.17,0.56,1.56c0.37,0.4,0.86,0.7,1.47,0.92c0.61,0.22,1.27,0.42,2,0.59
			c0.73,0.17,1.45,0.36,2.17,0.57c0.72,0.21,1.38,0.47,1.99,0.79c0.61,0.32,1.1,0.75,1.47,1.29c0.37,0.54,0.56,1.24,0.56,2.11
			c0,0.8-0.22,1.55-0.66,2.24c-0.44,0.69-1.12,1.24-2.02,1.66C243.14,214,241.97,214.2,240.55,214.2z"/>
		<path d="M253.38,214.06v-16.57h1.75v16.57H253.38z"/>
		<path d="M270.65,214.2c-1.26,0-2.43-0.21-3.49-0.63s-1.99-1.01-2.77-1.76c-0.78-0.76-1.39-1.65-1.82-2.68
			c-0.43-1.03-0.65-2.15-0.65-3.36s0.22-2.34,0.65-3.36c0.43-1.03,1.04-1.92,1.83-2.68c0.79-0.76,1.72-1.35,2.78-1.76
			c1.07-0.42,2.23-0.63,3.49-0.63c1.26,0,2.42,0.2,3.47,0.59c1.05,0.39,1.95,0.99,2.69,1.8l-1.09,1.11
			c-0.69-0.69-1.46-1.19-2.3-1.49c-0.84-0.3-1.74-0.45-2.7-0.45c-1.03,0-1.97,0.17-2.83,0.51c-0.86,0.34-1.61,0.82-2.25,1.44
			c-0.64,0.62-1.14,1.35-1.49,2.18c-0.35,0.83-0.53,1.74-0.53,2.73c0,0.98,0.18,1.89,0.53,2.72c0.36,0.84,0.85,1.57,1.49,2.19
			c0.64,0.62,1.39,1.11,2.25,1.44c0.86,0.34,1.8,0.51,2.81,0.51c0.95,0,1.84-0.14,2.69-0.43s1.62-0.77,2.33-1.44l1,1.33
			c-0.79,0.69-1.71,1.22-2.77,1.57S271.8,214.2,270.65,214.2z M275.05,211.88v-6.11h1.68v6.32L275.05,211.88z"/>
		<path d="M284.52,214.06v-16.57h1.44l11.44,14.4h-0.76v-14.4h1.73v16.57h-1.44l-11.41-14.4h0.76v14.4H284.52z"/>
	</g>
</g>
<g id="Shape_4">
	<g>
		<path d="M150.29,114.94l-5.19-14.46l-6.03,17.46l-15.93-44.35l-8.91,25.8l-4.93-11.74l-9.95,24.67l-4.25-11.84l-8.69,25.15h90.83
			L161.3,87.65L150.29,114.94z M319.16,100.48l-4.26,11.84l-9.95-24.67l-4.92,11.74l-8.91-25.8l-15.93,44.35l-6.03-17.46
			l-5.19,14.46l-11.01-27.29l-15.94,37.98h90.83L319.16,100.48z M250.26,68.89l14.36-6.93l17.8,30.17L267.6,52.57l-9.41,8.91
			l-17.83-26.71l-17.33,3.96L204.2,7.55l-33.18,69.26l-8.69-13.35L140.8,83.73l21.53-16.33l3.24,10.88l-3.24-0.49l4.23,14.35
			l4.46-6.93l33.18-69.75l9.91,17.81l-2.49,4.95l5.96,40.07l4.95-32.65l14.48-5.94l-2.1,10.14L250.26,68.89z"/>
	</g>
</g>
<g id="Rectangle_1_xA0_Image_00000133491829466473801520000006459673221939612579_">
</g>
</svg>
