<?xml version="1.0" encoding="utf-8"?>
<!-- Generator: Adobe Illustrator 27.0.0, SVG Export Plug-In . SVG Version: 6.00 Build 0)  -->
<svg version="1.1" id="Logo_00000070819593183431618200000012623562722022872969_"
	 xmlns="http://www.w3.org/2000/svg" xmlns:xlink="http://www.w3.org/1999/xlink" x="0px" y="0px" viewBox="0 0 428.48 227.52"
	 style="enable-background:new 0 0 428.48 227.52;" xml:space="preserve">
<style type="text/css">
	.st0{fill:#FFFFFF;}
</style>
<g id="Appalachian">
	<g>
		<path class="st0" d="M13.5,182.56l16.33-36.64h8.38l16.38,36.64h-8.9l-13.4-32.35h3.35l-13.45,32.35H13.5z M21.67,174.71
			l2.25-6.44h18.84l2.3,6.44H21.67z"/>
		<path class="st0" d="M58.42,182.56v-36.64h15.86c3.28,0,6.11,0.53,8.48,1.6c2.37,1.07,4.21,2.59,5.5,4.58
			c1.29,1.99,1.94,4.36,1.94,7.12c0,2.72-0.65,5.08-1.94,7.07c-1.29,1.99-3.12,3.52-5.5,4.58c-2.37,1.06-5.2,1.6-8.48,1.6H63.13
			l3.77-3.82v13.92H58.42z M66.9,169.58l-3.77-4.03h10.68c2.62,0,4.57-0.56,5.86-1.67c1.29-1.12,1.94-2.67,1.94-4.66
			c0-2.02-0.65-3.59-1.94-4.71c-1.29-1.12-3.25-1.67-5.86-1.67H63.13l3.77-4.03V169.58z"/>
		<path class="st0" d="M96.21,182.56v-36.64h15.86c3.28,0,6.11,0.53,8.48,1.6c2.37,1.07,4.21,2.59,5.5,4.58
			c1.29,1.99,1.94,4.36,1.94,7.12c0,2.72-0.65,5.08-1.94,7.07c-1.29,1.99-3.12,3.52-5.5,4.58c-2.37,1.06-5.2,1.6-8.48,1.6h-11.15
			l3.77-3.82v13.92H96.21z M104.69,169.58l-3.77-4.03h10.68c2.62,0,4.57-0.56,5.86-1.67c1.29-1.12,1.94-2.67,1.94-4.66
			c0-2.02-0.65-3.59-1.94-4.71c-1.29-1.12-3.25-1.67-5.86-1.67h-10.68l3.77-4.03V169.58z"/>
		<path class="st0" d="M127.36,182.56l16.33-36.64h8.38l16.38,36.64h-8.9l-13.4-32.35h3.35l-13.45,32.35H127.36z M135.52,174.71
			l2.25-6.44h18.84l2.3,6.44H135.52z"/>
		<path class="st0" d="M172.27,182.56v-36.64h8.48v29.73h18.37v6.91H172.27z"/>
		<path class="st0" d="M199.28,182.56l16.33-36.64h8.38l16.38,36.64h-8.9l-13.4-32.35h3.35l-13.45,32.35H199.28z M207.45,174.71
			l2.25-6.44h18.84l2.3,6.44H207.45z"/>
		<path class="st0" d="M261.21,183.19c-2.83,0-5.45-0.46-7.88-1.39c-2.43-0.92-4.53-2.24-6.31-3.95c-1.78-1.71-3.17-3.72-4.16-6.02
			c-0.99-2.3-1.49-4.83-1.49-7.59c0-2.76,0.5-5.29,1.49-7.59c1-2.3,2.39-4.31,4.19-6.02c1.8-1.71,3.9-3.03,6.31-3.95
			c2.41-0.92,5.04-1.39,7.9-1.39c3.18,0,6.05,0.55,8.61,1.65c2.56,1.1,4.72,2.71,6.46,4.84l-5.44,5.03
			c-1.26-1.43-2.65-2.5-4.19-3.22c-1.54-0.71-3.21-1.07-5.03-1.07c-1.71,0-3.28,0.28-4.71,0.84c-1.43,0.56-2.67,1.36-3.72,2.41
			s-1.86,2.29-2.43,3.72c-0.58,1.43-0.86,3.02-0.86,4.76c0,1.75,0.29,3.33,0.86,4.76c0.58,1.43,1.39,2.67,2.43,3.72
			s2.29,1.85,3.72,2.41c1.43,0.56,3,0.84,4.71,0.84c1.81,0,3.49-0.36,5.03-1.07c1.54-0.71,2.93-1.81,4.19-3.27l5.44,5.03
			c-1.75,2.13-3.9,3.75-6.46,4.87C267.3,182.63,264.42,183.19,261.21,183.19z"/>
		<path class="st0" d="M290.52,182.56h-8.48v-36.64h8.48V182.56z M307.79,167.54h-17.9v-7.17h17.9V167.54z M307.17,145.92h8.48
			v36.64h-8.48V145.92z"/>
		<path class="st0" d="M324.33,182.56v-36.64h8.48v36.64H324.33z"/>
		<path class="st0" d="M336.69,182.56l16.33-36.64h8.38l16.38,36.64h-8.9l-13.4-32.35h3.35l-13.45,32.35H336.69z M344.86,174.71
			l2.25-6.44h18.84l2.3,6.44H344.86z"/>
		<path class="st0" d="M381.6,182.56v-36.64h7.01l21.62,26.38h-3.4v-26.38h8.38v36.64h-6.96l-21.67-26.38h3.4v26.38H381.6z"/>
	</g>
	<rect x="12.16" y="207.12" class="st0" width="101.28" height="2.88"/>
	<rect x="312.86" y="207.12" class="st0" width="101.28" height="2.88"/>
</g>
<g id="Web_Design">
	<g>
		<path class="st0" d="M125.28,216.59l-5.36-16.4h3.94l4.66,14.52h-1.97l4.87-14.52h3.51l4.69,14.52h-1.9l4.78-14.52h3.63
			l-5.36,16.4h-4.08l-4.15-12.74h1.08l-4.26,12.74H125.28z"/>
		<path class="st0" d="M154.82,213.55h8.93v3.04h-12.7v-16.4h12.39v3.04h-8.62V213.55z M154.54,206.8h7.89v2.95h-7.89V206.8z"/>
		<path class="st0" d="M169.58,216.59v-16.4h8.01c2.06,0,3.61,0.39,4.65,1.17c1.04,0.78,1.56,1.81,1.56,3.09
			c0,0.86-0.21,1.61-0.63,2.24c-0.42,0.63-1,1.12-1.73,1.46c-0.73,0.34-1.58,0.52-2.53,0.52l0.45-0.96c1.03,0,1.94,0.17,2.74,0.5
			c0.8,0.34,1.42,0.83,1.86,1.49c0.44,0.66,0.67,1.46,0.67,2.41c0,1.41-0.55,2.5-1.66,3.29c-1.11,0.79-2.74,1.18-4.9,1.18H169.58z
			 M173.35,213.73h4.43c0.98,0,1.73-0.16,2.24-0.48c0.51-0.32,0.76-0.83,0.76-1.53c0-0.69-0.25-1.2-0.76-1.54
			c-0.51-0.33-1.25-0.5-2.24-0.5h-4.71v-2.76h4.05c0.92,0,1.63-0.16,2.12-0.48c0.49-0.32,0.74-0.81,0.74-1.46
			c0-0.64-0.25-1.12-0.74-1.44c-0.49-0.32-1.2-0.48-2.12-0.48h-3.77V213.73z"/>
		<path class="st0" d="M199.75,216.59v-16.4h7.45c1.78,0,3.35,0.34,4.71,1.02c1.36,0.68,2.42,1.63,3.19,2.85
			c0.76,1.22,1.15,2.66,1.15,4.33c0,1.66-0.38,3.1-1.15,4.32c-0.77,1.23-1.83,2.18-3.19,2.86c-1.36,0.68-2.93,1.02-4.71,1.02H199.75
			z M203.54,213.48h3.47c1.09,0,2.04-0.21,2.85-0.62s1.43-1,1.87-1.77c0.44-0.76,0.67-1.66,0.67-2.69c0-1.05-0.22-1.95-0.67-2.71
			c-0.45-0.76-1.07-1.34-1.87-1.76s-1.75-0.62-2.85-0.62h-3.47V213.48z"/>
		<path class="st0" d="M225.68,213.55h8.92v3.04h-12.7v-16.4h12.39v3.04h-8.62V213.55z M225.4,206.8h7.89v2.95h-7.89V206.8z"/>
		<path class="st0" d="M245.83,216.87c-1.31,0-2.57-0.18-3.77-0.53s-2.17-0.81-2.9-1.37l1.29-2.86c0.7,0.5,1.53,0.91,2.5,1.23
			c0.96,0.32,1.93,0.48,2.92,0.48c0.75,0,1.35-0.07,1.82-0.22s0.8-0.36,1.02-0.62c0.22-0.27,0.33-0.57,0.33-0.91
			c0-0.44-0.17-0.78-0.52-1.04c-0.34-0.26-0.8-0.47-1.36-0.63c-0.56-0.16-1.18-0.32-1.86-0.47c-0.68-0.15-1.36-0.33-2.04-0.55
			c-0.68-0.22-1.3-0.5-1.86-0.84c-0.56-0.34-1.02-0.8-1.37-1.36s-0.53-1.28-0.53-2.16c0-0.94,0.25-1.79,0.76-2.57
			c0.51-0.77,1.27-1.39,2.3-1.85c1.02-0.46,2.31-0.69,3.85-0.69c1.03,0,2.05,0.12,3.04,0.36c1,0.24,1.88,0.6,2.65,1.09l-1.17,2.88
			c-0.77-0.44-1.53-0.76-2.3-0.97c-0.77-0.21-1.52-0.32-2.25-0.32c-0.73,0-1.33,0.09-1.8,0.26s-0.8,0.39-1.01,0.67
			s-0.3,0.59-0.3,0.95c0,0.42,0.17,0.76,0.51,1.02c0.34,0.26,0.8,0.46,1.36,0.62c0.56,0.16,1.18,0.31,1.86,0.47
			c0.68,0.16,1.36,0.34,2.04,0.54c0.68,0.2,1.3,0.48,1.86,0.82c0.56,0.34,1.02,0.8,1.37,1.36c0.35,0.56,0.53,1.27,0.53,2.13
			c0,0.92-0.26,1.76-0.77,2.53c-0.52,0.77-1.29,1.38-2.31,1.85S247.39,216.87,245.83,216.87z"/>
		<path class="st0" d="M258.2,216.59v-16.4h3.79v16.4H258.2z"/>
		<path class="st0" d="M276.61,216.87c-1.3,0-2.49-0.21-3.57-0.62c-1.09-0.41-2.03-1-2.83-1.77c-0.8-0.76-1.43-1.66-1.87-2.69
			c-0.45-1.03-0.67-2.16-0.67-3.4c0-1.23,0.22-2.37,0.67-3.4c0.45-1.03,1.07-1.93,1.89-2.69c0.81-0.76,1.76-1.35,2.86-1.77
			c1.09-0.41,2.29-0.62,3.61-0.62c1.45,0,2.76,0.24,3.92,0.73c1.16,0.48,2.14,1.19,2.94,2.11l-2.44,2.25
			c-0.59-0.62-1.24-1.09-1.94-1.39c-0.7-0.3-1.47-0.46-2.3-0.46c-0.8,0-1.52,0.12-2.18,0.38s-1.22,0.61-1.7,1.08
			c-0.48,0.47-0.84,1.02-1.1,1.66c-0.26,0.64-0.39,1.35-0.39,2.13c0,0.77,0.13,1.47,0.39,2.11c0.26,0.64,0.62,1.2,1.1,1.67
			c0.48,0.48,1.04,0.84,1.69,1.09c0.65,0.25,1.36,0.38,2.14,0.38c0.75,0,1.48-0.12,2.19-0.36c0.71-0.24,1.4-0.65,2.07-1.23
			l2.15,2.74c-0.89,0.67-1.92,1.19-3.1,1.55C278.95,216.69,277.78,216.87,276.61,216.87z M279.77,214.29v-6.16h3.47v6.65
			L279.77,214.29z"/>
		<path class="st0" d="M289.56,216.59v-16.4h3.14l9.67,11.81h-1.52v-11.81h3.75v16.4h-3.12l-9.7-11.81h1.52v11.81H289.56z"/>
	</g>
</g>
<g id="Shape_4">
	<g>
		<path class="st0" d="M157.41,117.71l-5.19-14.46l-6.03,17.46l-15.93-44.35l-8.91,25.8l-4.93-11.74l-9.95,24.67l-4.25-11.84
			l-8.69,25.15h90.83l-15.93-37.98L157.41,117.71z M326.28,103.25l-4.26,11.84l-9.95-24.67l-4.92,11.74l-8.91-25.8l-15.93,44.35
			l-6.03-17.46l-5.19,14.46l-11.01-27.29l-15.94,37.98h90.83L326.28,103.25z M257.38,71.66l14.36-6.93l17.8,30.17l-14.83-39.58
			l-9.41,8.91l-17.83-26.71l-17.33,3.96l-18.82-31.17l-33.18,69.26l-8.69-13.35L147.92,86.5l21.53-16.33l3.24,10.88l-3.24-0.49
			l4.23,14.35l4.46-6.93l33.18-69.75l9.91,17.81l-2.49,4.95l5.96,40.07l4.95-32.65l14.48-5.94l-2.1,10.14L257.38,71.66z"/>
	</g>
</g>
<g id="Rectangle_1_xA0_Image_00000133491829466473801520000006459673221939612579_">
</g>
</svg>
